<?xml version="1.0" encoding="utf-8"?>
<!-- Generator: Adobe Illustrator 20.1.0, SVG Export Plug-In . SVG Version: 6.00 Build 0)  -->
<svg version="1.1" id="Layer_1" xmlns="http://www.w3.org/2000/svg" xmlns:xlink="http://www.w3.org/1999/xlink" x="0px" y="0px"
	 viewBox="0 0 873 480" style="enable-background:new 0 0 873 480;" xml:space="preserve">
<style type="text/css">
	.st0{fill:#FFFFFF;stroke:#000000;stroke-miterlimit:10;}
	.st1{fill:#F88C36;}
	.st2{display:none;}
	.st3{display:inline;fill:none;stroke:#000000;stroke-miterlimit:10;}
	.st4{display:inline;}
	.st5{fill:#FFFFFF;}
	.st6{display:inline;fill:#FFFFFF;stroke:#000000;stroke-miterlimit:10;}
</style>
<g id="one_shape">
	<g>
		<path class="st0" d="M566.7,277.1c-3.3,11.6-8,22.4-13.9,32.4l27.3,15.8c-15.2,26.2-37.1,48.1-63.4,63.2l-15.9-27.6l0,0
			c-0.8,0.3-22.6,11.1-36,14.4c-11.2,2.8-22.8,4.3-34.6,4.2v31.9c-31.3,0-60.7-8.4-86-23l16-27.6c0.2,0.1,0.3,0.2,0.4,0.2
			c-0.1,0-0.2-0.1-0.4-0.2l0,0c-11.4-6.5-21.7-14.5-30.7-23.7c-8.4-8.5-20.8-27.2-21.2-27.8l-27.4,15.8
			c-14.8-25.4-23.2-54.9-23.3-86.4h31.2c-0.1-12.7,1.5-25.6,5-38.4c0.1-0.3,0.2-0.7,0.3-1c3.2-11.3,7.6-21.9,13.2-31.6l-26.7-15.4
			c15.2-26.3,37-48.2,63.2-63.4l15.3,26.5c0.4-0.2,22.9-11.4,35.8-14.8c11.4-3,23.3-4.6,35.3-4.6V65.6h0.2
			c31.6,0,61.2,8.5,86.7,23.3L502,115.2l-0.2-0.1c0,0,0.1,0.1,0.2,0.1l0,0c11.4,6.6,21.6,14.7,30.5,23.9
			c8.8,9.1,20.4,27.2,21.3,28.5l26.6-15.4c14.6,25.4,23,54.8,23,86.2v0.2h-31.1c-0.1,12.3-1.8,24.9-5.3,37.3
			C566.9,276.4,566.8,276.8,566.7,277.1z"/>
	</g>
</g>
<g>
	<path class="st1" d="M572.3,238.8h31.1c0-0.1,0-0.2,0-0.3c0-31.4-8.4-60.9-23-86.3l-26.6,15.4c11.8,20.7,18.5,44.6,18.5,70.1
		C572.3,238.1,572.3,238.4,572.3,238.8z"/>
	<path class="st1" d="M344.2,388.4c25.3,14.6,54.7,23,86,23v-32c-25.5-0.1-49.4-6.8-70-18.7L344.2,388.4z"/>
	<path class="st1" d="M500.8,360.8l15.9,27.6c26.3-15.1,48.2-37,63.4-63.2l-27.3-15.8C540.3,330.8,522.3,348.5,500.8,360.8z"/>
	<path class="st1" d="M502,115.2l15.2-26.4c-25.5-14.8-55.1-23.3-86.7-23.3c-0.1,0-0.2,0-0.3,0V96c0.1,0,0.2,0,0.3,0
		C456.6,96,481,103,502,115.2z"/>
	<path class="st1" d="M257.6,238.8c0,31.5,8.5,61,23.3,86.4l27.4-15.8c-12.2-20.7-19.2-44.9-19.4-70.6L257.6,238.8L257.6,238.8z"/>
	<path class="st1" d="M359.1,115.3l-15.3-26.5c-26.2,15.2-48.1,37.1-63.2,63.4l26.7,15.4C319.7,146,337.6,127.9,359.1,115.3z"/>
	<path class="st1" d="M542.2,269.9c0,0.1,0,0.2-0.1,0.2l24.6,6.9c0.1-0.3,0.2-0.7,0.3-1c6.9-24.6,6.9-49.4,1.1-72.5L543,210
		C547.8,229.1,547.9,249.6,542.2,269.9z"/>
	<path class="st1" d="M318.4,207c5.7-20.3,16.5-37.8,30.5-51.6l-18-18.5c-16.9,16.7-29.9,37.9-36.8,62.4c-0.1,0.3-0.2,0.7-0.3,1
		l24.5,6.9C318.4,207.1,318.4,207.1,318.4,207z"/>
	<path class="st1" d="M347.3,319.8l-17.7,17.3c16.7,17,37.8,30,62.4,36.9l6.7-23.8C378.4,344.5,361,333.8,347.3,319.8z"/>
	<path class="st1" d="M317.7,267.4l-24.3,6.2c6.3,23.9,18.7,45.9,36.1,63.5l17.7-17.3C333,305.2,322.8,287.1,317.7,267.4z"/>
	<path class="st1" d="M543,210l25.2-6.4c-6-24.2-18.4-46.5-35.7-64.4l-18.8,18.3C527.9,172.1,538,190.2,543,210z"/>
	<path class="st1" d="M458.7,351.2l6.1,24.1c24-6,46.1-18.3,64-35.4l-17.6-18C496.6,336,478.5,346.1,458.7,351.2z"/>
	<path class="st1" d="M542.1,270.2c-5.8,20.4-16.6,37.9-30.8,51.7l17.6,18c17.4-16.7,30.7-38,37.9-62.8L542.1,270.2z"/>
	<path class="st1" d="M398.8,350.3c-0.1,0-0.2,0-0.2-0.1l-6.7,23.8c0.1,0,0.2,0.1,0.3,0.1c24.6,6.9,49.5,6.9,72.7,1.1l-6.1-24.1
		C439.7,356,419.1,356,398.8,350.3z"/>
	<path class="st1" d="M461.8,126.6c20.5,5.8,38.1,16.7,51.9,30.9l18.8-18.3c-16.9-17.5-38.4-30.8-63.5-37.9c-0.1,0-0.2-0.1-0.3-0.1
		l-7.1,25.3C461.6,126.5,461.7,126.5,461.8,126.6z"/>
	<path class="st1" d="M461.5,126.5l7.1-25.3c-25-7-50.3-6.8-73.7-0.7l6.5,25.3C420.5,120.9,441.1,120.8,461.5,126.5z"/>
	<path class="st1" d="M318.3,207.2l-24.5-6.9c-6.8,24.8-6.5,50-0.4,73.2l24.3-6.2C312.8,248.3,312.7,227.6,318.3,207.2z"/>
	<path class="st1" d="M401.4,125.9l-6.5-25.3c-24.1,6.3-46.2,18.9-64,36.4l18,18.5C363.5,141.2,381.6,131,401.4,125.9z"/>
	<polygon class="st1" points="430.4,238.8 430.3,238.7 430.2,238.6 430.2,238.6 430.2,238.8 430.2,238.9 430.2,239.4 430.5,239 
		430.6,238.8 430.6,238.8 430.7,238.7 430.6,238.8 	"/>
	<path class="st1" d="M531.3,180.6l-100.6,58.1v0.1h116.1c0-0.1,0-0.2,0-0.3C546.7,217.4,541.1,197.6,531.3,180.6z"/>
	<path class="st1" d="M430.2,238.6l-100.5-58c-9.8,17-15.4,36.8-15.4,57.9c0,0.1,0,0.2,0,0.3h116v-0.2H430.2z"/>
	<path class="st1" d="M372.6,339.3c17,9.8,36.7,15.4,57.6,15.4V239.4L372.6,339.3z"/>
	<path class="st1" d="M430.2,238.9L330,296.8c10.2,17.6,25,32.3,42.6,42.5l57.6-99.8V238.9z"/>
	<path class="st1" d="M531.3,180.6c-10.2-17.7-24.8-32.4-42.5-42.6l-58.2,100.7L531.3,180.6z"/>
	<path class="st1" d="M430.5,239l57.9,100.3c17.7-10.2,32.4-24.8,42.6-42.5l-100.4-58L430.5,239z"/>
	<path class="st1" d="M430.6,238.8l100.4,58c9.9-17.1,15.6-36.9,15.7-58.1L430.6,238.8L430.6,238.8z"/>
	<path class="st1" d="M430.2,239.4v115.3c0.1,0,0.2,0,0.3,0c21.1,0,40.9-5.6,57.9-15.4L430.5,239L430.2,239.4z"/>
	<path class="st1" d="M430.3,238.7l0.1,0.1h0.1l0.1-0.1L488.8,138c-17.1-10-37.1-15.7-58.3-15.7c-0.1,0-0.2,0-0.3,0L430.3,238.7
		L430.3,238.7z"/>
	<path class="st1" d="M430.2,122.3c-21.2,0-41,5.8-58.1,15.7l58.1,100.6V122.3z"/>
	<path class="st1" d="M430.2,238.8h-116c0,21.2,5.8,41,15.7,58.1L430.2,239V238.8z"/>
	<path class="st1" d="M430.2,238.6l-58-100.6c-17.6,10.2-32.3,25-42.5,42.6L430.2,238.6L430.2,238.6z"/>
</g>
<g id="Layer_1_copy" class="st2">
	<line class="st3" x1="792.8" y1="291.7" x2="792.8" y2="722.5"/>
	<line class="st3" x1="693.7" y1="318.4" x2="909.1" y2="691.5"/>
	<line class="st3" x1="621.3" y1="391" x2="994.3" y2="606.4"/>
	<line class="st3" x1="594.9" y1="490.1" x2="1025.6" y2="490.1"/>
	<line class="st3" x1="621.5" y1="589.2" x2="994.6" y2="373.8"/>
	<line class="st3" x1="694.2" y1="661.6" x2="909.5" y2="288.6"/>
	<g class="st4">
		<path class="st5" d="M572.3,238.8h31.1c0-0.1,0-0.2,0-0.3c0-31.4-8.4-60.9-23-86.3l-26.6,15.4c11.8,20.7,18.5,44.6,18.5,70.1
			C572.3,238.1,572.3,238.4,572.3,238.8z"/>
		<path class="st5" d="M344.2,388.4c25.3,14.6,54.7,23,86,23v-32c-25.5-0.1-49.4-6.8-70-18.7L344.2,388.4z"/>
		<path class="st5" d="M500.8,360.8l15.9,27.6c26.3-15.1,48.2-37,63.4-63.2l-27.3-15.8C540.3,330.8,522.3,348.5,500.8,360.8z"/>
		<path class="st5" d="M502,115.2l15.2-26.4c-25.5-14.8-55.1-23.3-86.7-23.3c-0.1,0-0.2,0-0.3,0V96c0.1,0,0.2,0,0.3,0
			C456.6,96,481,103,502,115.2z"/>
		<path class="st5" d="M257.6,238.8c0,31.5,8.5,61,23.3,86.4l27.4-15.8c-12.2-20.7-19.2-44.9-19.4-70.6L257.6,238.8L257.6,238.8z"/>
		<path class="st5" d="M359.1,115.3l-15.3-26.5c-26.2,15.2-48.1,37.1-63.2,63.4l26.7,15.4C319.7,146,337.6,127.9,359.1,115.3z"/>
		<path class="st5" d="M318.4,207c5.7-20.3,16.5-37.8,30.5-51.6l-18-18.5c-16.9,16.7-29.9,37.9-36.8,62.4c-0.1,0.3-0.2,0.7-0.3,1
			l24.5,6.9C318.4,207.1,318.4,207.1,318.4,207z"/>
		<path class="st5" d="M317.7,267.4l-24.3,6.2c6.3,23.9,18.7,45.9,36.1,63.5l17.7-17.3C333,305.2,322.8,287.1,317.7,267.4z"/>
		<path class="st5" d="M543,210l25.2-6.4c-6-24.2-18.4-46.5-35.7-64.4l-18.8,18.3C527.9,172.1,538,190.2,543,210z"/>
		<path class="st5" d="M542.1,270.2c-5.8,20.4-16.6,37.9-30.8,51.7l17.6,18c17.4-16.7,30.7-38,37.9-62.8L542.1,270.2z"/>
		<path class="st5" d="M398.8,350.3c-0.1,0-0.2,0-0.2-0.1l-6.7,23.8c0.1,0,0.2,0.1,0.3,0.1c24.6,6.9,49.5,6.9,72.7,1.1l-6.1-24.1
			C439.7,356,419.1,356,398.8,350.3z"/>
		<path class="st5" d="M461.5,126.5l7.1-25.3c-25-7-50.3-6.8-73.7-0.7l6.5,25.3C420.5,120.9,441.1,120.8,461.5,126.5z"/>
		<polygon class="st5" points="430.4,238.8 430.3,238.7 430.2,238.6 430.2,238.6 430.2,238.8 430.2,238.9 430.2,239.4 430.5,239 
			430.6,238.8 430.6,238.8 430.7,238.7 430.6,238.8 		"/>
		<path class="st5" d="M531.3,180.6l-100.6,58.1v0.1h116.1c0-0.1,0-0.2,0-0.3C546.7,217.4,541.1,197.6,531.3,180.6z"/>
		<path class="st5" d="M430.2,238.6l-100.5-58c-9.8,17-15.4,36.8-15.4,57.9c0,0.1,0,0.2,0,0.3h116v-0.2H430.2z"/>
		<path class="st5" d="M372.6,339.3c17,9.8,36.7,15.4,57.6,15.4V239.4L372.6,339.3z"/>
		<path class="st5" d="M430.2,238.9L330,296.8c10.2,17.6,25,32.3,42.6,42.5l57.6-99.8V238.9z"/>
		<path class="st5" d="M531.3,180.6c-10.2-17.7-24.8-32.4-42.5-42.6l-58.2,100.7L531.3,180.6z"/>
		<path class="st5" d="M430.5,239l57.9,100.3c17.7-10.2,32.4-24.8,42.6-42.5l-100.4-58L430.5,239z"/>
		<path class="st5" d="M430.6,238.8l100.4,58c9.9-17.1,15.6-36.9,15.7-58.1L430.6,238.8L430.6,238.8z"/>
		<path class="st5" d="M430.2,239.4v115.3c0.1,0,0.2,0,0.3,0c21.1,0,40.9-5.6,57.9-15.4L430.5,239L430.2,239.4z"/>
		<path class="st5" d="M430.3,238.7l0.1,0.1h0.1l0.1-0.1L488.8,138c-17.1-10-37.1-15.7-58.3-15.7c-0.1,0-0.2,0-0.3,0L430.3,238.7
			L430.3,238.7z"/>
		<path class="st5" d="M430.2,122.3c-21.2,0-41,5.8-58.1,15.7l58.1,100.6V122.3z"/>
		<path class="st5" d="M430.2,238.8h-116c0,21.2,5.8,41,15.7,58.1L430.2,239V238.8z"/>
		<path class="st5" d="M430.2,238.6l-58-100.6c-17.6,10.2-32.3,25-42.5,42.6L430.2,238.6L430.2,238.6z"/>
	</g>
</g>
<g id="ccw_one_shape" class="st2">
	<path class="st6" d="M603.4,238.8v-0.2c0-31.4-8.4-60.9-23-86.2L554,167.5c0,0-4.3-10.5-21.5-28.4l-18.7,18.3
		c-7.4-7.5-15.7-14.1-24.9-19.5c-8.5-4.9-17.7-8.8-27.3-11.5l7.1-25.3c11.8,3.3,23,8,33.3,14.1l15.2-26.4
		c-25.5-14.8-55.1-23.3-86.7-23.3h-0.2V96c-12.1,0-23.9,1.6-35.3,4.6l6.4,25c0,0-12,2.5-29.1,12.5c-8.2,4.8-15.8,10.5-22.5,17.1
		L331.9,137c8.4-8.3,17.9-15.6,28.2-21.6l-15.3-26.5c-26.2,15.2-48.1,37.1-63.2,63.4l26.7,15.4c0.1-0.1,0.1-0.2,0.2-0.3
		c-5.6,9.9-10.2,20.5-13.4,32c-0.1,0.3-0.2,0.7-0.3,1l23.7,6.7c-2.8,10-4.3,20.6-4.3,31.5v0.2c0,10,1.3,19.6,3.7,28.8l-23.5,6
		c-2.9-11.1-4.5-22.8-4.6-34.8h-31.3c0,31.5,8.5,61,23.3,86.4l27.4-15.8c0,0,5.2,11.4,21.2,27.8l17.3-16.9
		c7.3,7.4,15.6,13.9,24.7,19.1c8.1,4.7,16.8,8.4,26,11l-6.7,23.8c-11.2-3.2-21.8-7.6-31.7-13.3l-16,27.6c25.3,14.6,54.7,23,86,23
		v-31.9c11.8,0,23.4-1.4,34.6-4.2l-6.1-24c10.5-2.6,20.5-6.7,29.6-12c8.4-4.8,16.1-10.7,23-17.3l17.5,17.9c-8.4,8.1-17.8,15.2-28,21
		l15.9,27.6c26.3-15.1,48.2-37,63.4-63.2l-27.3-15.8c5.8-10,10.5-20.8,13.9-32.3l-24.4-6.9c2.8-10,4.4-20.6,4.4-31.5v-0.2
		c0-9.9-1.2-19.4-3.5-28.5l25-6.4c2.7,10.9,4.2,22.4,4.2,34.1c0,0.4,0,0.7,0,1h31.2V238.8z M468.3,101.1c-0.6-0.2-1.2-0.3-1.8-0.5
		C467.1,100.8,467.7,100.9,468.3,101.1z"/>
</g>
<g id="slices">
</g>
</svg>
