<svg id="ccw_one_shape" data-name="ccw one shape" xmlns="http://www.w3.org/2000/svg" viewBox="0 0 345.82 346.82"><defs><style>.cls-1{fill:#fff;stroke:#000;stroke-miterlimit:10;}</style></defs><title>quadrature</title><path class="cls-1" d="M7366.91,7198.25V7198a172.21,172.21,0,0,0-23-86.25L7317.47,7127s-4.28-10.51-21.52-28.36l-18.72,18.26A115.77,115.77,0,0,0,7225,7086l7.11-25.27a140.66,140.66,0,0,1,33.32,14.05l15.23-26.39a172.13,172.13,0,0,0-86.68-23.27h-.25v30.38a140.91,140.91,0,0,0-35.35,4.57l6.36,25s-12,2.53-29.1,12.47a116.34,116.34,0,0,0-22.55,17.11l-17.67-18.11a142.29,142.29,0,0,1,28.15-21.64l-15.28-26.47a173.87,173.87,0,0,0-63.21,63.39l26.74,15.44.19-.32a141.75,141.75,0,0,0-13.38,32c-.1.34-.18.67-.27,1l23.73,6.68a116.33,116.33,0,0,0-4.33,31.48v.25a116.09,116.09,0,0,0,3.69,28.83l-23.52,6a141.57,141.57,0,0,1-4.58-34.81h-31.28a172,172,0,0,0,23.27,86.44l27.42-15.83s5.19,11.42,21.23,27.75l17.35-16.92a116.52,116.52,0,0,0,24.74,19.1,115.26,115.26,0,0,0,26,11l-6.7,23.8a140,140,0,0,1-31.68-13.29l-16,27.63a172.05,172.05,0,0,0,86,23V7339a140.4,140.4,0,0,0,34.63-4.21l-6.12-24a115,115,0,0,0,29.64-12,116.46,116.46,0,0,0,23-17.35l17.46,17.89a141.88,141.88,0,0,1-28,21l15.91,27.56a173.87,173.87,0,0,0,63.39-63.21l-27.29-15.76a141.82,141.82,0,0,0,13.88-32.34l-24.41-6.87a116.23,116.23,0,0,0,4.4-31.47V7198a116.22,116.22,0,0,0-3.55-28.54l25-6.37a141.66,141.66,0,0,1,4.16,34.13c0,.35,0,.69,0,1Zm-135.09-137.64-1.79-.47Z" transform="translate(-7021.59 -7024.59)"/></svg>