<?xml version="1.0" encoding="utf-8"?>
<!-- Generator: Adobe Illustrator 20.1.0, SVG Export Plug-In . SVG Version: 6.00 Build 0)  -->
<svg version="1.1" xmlns="http://www.w3.org/2000/svg" xmlns:xlink="http://www.w3.org/1999/xlink" x="0px" y="0px"
	 viewBox="0 0 873 480" style="enable-background:new 0 0 873 480;" xml:space="preserve">
<style type="text/css">
	.st0{display:none;}
	.st1{display:inline;fill:#F78D38;stroke:#000000;stroke-miterlimit:10;}
	.st2{display:inline;fill:#808080;}
	.st3{display:inline;fill:#F78D38;}
	.st4{display:inline;fill:#313131;}
	.st5{display:inline;}
	.st6{fill:#808080;}
	.st7{fill:none;stroke:#808080;stroke-miterlimit:10;}
	.st8{display:inline;fill:none;stroke:#000000;stroke-miterlimit:10;}
	.st9{display:inline;fill:#FF3203;}
	.st10{fill:#F78D38;stroke:#000000;stroke-miterlimit:10;}
	.st11{fill:#F78D38;}
	.st12{fill:#313131;}
	.st13{fill:none;stroke:#000000;stroke-miterlimit:10;}
	.st14{fill:#FF3203;}
	.st15{fill:none;}
	.st16{display:none;fill:#F78D38;}
	.st17{display:inline;fill:#89C43D;}
	.st18{fill:#F88C36;stroke:#F88C36;stroke-miterlimit:10;}
	.st19{display:none;fill:#F88C36;stroke:#F88C36;stroke-miterlimit:10;}
	.st20{display:inline;fill:#F88C36;stroke:#F88C36;stroke-miterlimit:10;}
	.st21{fill:#00FF00;}
	.st22{fill:#ED1C24;}
	.st23{fill:#0000FF;}
	.st24{display:inline;fill:#ED1C24;}
	.st25{display:inline;fill:#0000FF;}
	.st26{fill:#F88C36;stroke:#F88C36;stroke-width:2.8346;stroke-miterlimit:10;}
</style>
<g id="Template" class="st0">
	<circle class="st1" cx="331" cy="232.5" r="175.7"/>
	<circle class="st2" cx="331" cy="232.5" r="138.9"/>
	<circle class="st3" cx="331" cy="232.5" r="116.2"/>
	<circle class="st2" cx="331" cy="232.5" r="110.6"/>
	<circle class="st3" cx="331" cy="232.5" r="87.9"/>
	<circle class="st2" cx="331" cy="232.5" r="82.2"/>
	<circle class="st3" cx="331" cy="232.5" r="59.5"/>
	<circle class="st4" cx="331" cy="232.5" r="4.3"/>
</g>
<g id="Layer_1_copy" class="st0">
	<circle class="st1" cx="331.7" cy="236.3" r="175.7"/>
	<circle class="st2" cx="331.7" cy="236.3" r="138.9"/>
	<circle class="st2" cx="351" cy="236.5" r="82.2"/>
	<circle class="st3" cx="331.7" cy="236.3" r="116.2"/>
	<g class="st5">
		<polygon class="st6" points="331.7,236.3 331.7,236.3 331.7,236.3 		"/>
		<path class="st7" d="M331.7,236.3V125.8c-30.5,0-58.2,12.4-78.2,32.4L331.7,236.3L331.7,236.3z"/>
		<polygon class="st6" points="331.7,236.3 331.7,236.3 331.7,236.3 		"/>
		<path class="st7" d="M409.8,158.2c-20-20-47.6-32.4-78.2-32.4v110.6L409.8,158.2z"/>
		<path class="st7" d="M442.2,236.3c0-30.5-12.4-58.2-32.4-78.2l-78.2,78.2H442.2z"/>
		<path class="st6" d="M331.7,236.3H221.1c0,30.5,12.4,58.2,32.4,78.2L331.7,236.3L331.7,236.3z"/>
		<path class="st6" d="M331.7,346.9c30.5,0,58.2-12.4,78.2-32.4l-78.2-78.2V346.9z"/>
		<path class="st7" d="M253.5,158.2c-20,20-32.4,47.6-32.4,78.2h110.6L253.5,158.2z"/>
		<path class="st6" d="M331.7,236.3L331.7,236.3l78.2,78.2c20-20,32.4-47.6,32.4-78.2H331.7z"/>
		<path class="st6" d="M331.7,236.3l-78.2,78.2c20,20,47.6,32.4,78.2,32.4V236.3L331.7,236.3z"/>
	</g>
	<circle class="st3" cx="331.7" cy="236.3" r="87.9"/>
	<circle class="st2" cx="331.7" cy="236.3" r="82.2"/>
	<circle class="st3" cx="331.7" cy="236.3" r="59.5"/>
	<circle class="st4" cx="331.7" cy="236.3" r="4.3"/>
	<line class="st8" x1="188.4" y1="93" x2="329.5" y2="234.2"/>
	<line class="st8" x1="129" y1="236.3" x2="328.6" y2="236.3"/>
	<line class="st8" x1="188.4" y1="379.6" x2="329.5" y2="238.5"/>
	<line class="st8" x1="331.7" y1="439" x2="331.7" y2="239.4"/>
	<path class="st9" d="M273.7,178.3l16,16c13.8-12.3,27.9-15.7,42-17.5v-22.7C313.8,157.9,297.9,155.5,273.7,178.3z"/>
	<path id="long_1_2_" class="st8" d="M894,677.6"/>
	<path id="long_2_3_" class="st8" d="M488.3,534.3"/>
	<path id="long_2_2_" class="st8" d="M953.3,534.3"/>
	<path id="long3_3_" class="st8" d="M590.2,694.8"/>
	<path id="long3_2_" class="st8" d="M894,391"/>
	<line id="long_4_1_" class="st8" x1="871.7" y1="303.7" x2="871.7" y2="707"/>
	<line id="long_1_1_" class="st8" x1="1015" y1="649.6" x2="691.1" y2="325.7"/>
	<line id="long_2_1_" class="st8" x1="1074.3" y1="506.3" x2="609.3" y2="506.3"/>
	<line id="long3_1_" class="st8" x1="1015" y1="363" x2="711.2" y2="666.8"/>
	<line id="long_4_2_" class="st8" x1="902.7" y1="-16.3" x2="902.7" y2="387"/>
	<line id="long_1_5_" class="st8" x1="1046" y1="329.6" x2="722.1" y2="5.7"/>
	<line id="long_2_4_" class="st8" x1="1105.3" y1="186.3" x2="640.3" y2="186.3"/>
	<line id="long3_4_" class="st8" x1="1046" y1="43" x2="742.2" y2="346.8"/>
</g>
<g id="Layer_1_copy_2" class="st0">
	<circle class="st10" cx="331.7" cy="236.3" r="175.7"/>
	<circle class="st2" cx="331.7" cy="236.3" r="138.9"/>
	<circle class="st6" cx="351" cy="236.5" r="82.2"/>
	<circle class="st11" cx="331.7" cy="236.3" r="116.2"/>
	<circle class="st11" cx="331.7" cy="236.3" r="87.9"/>
	<circle class="st6" cx="331.7" cy="236.3" r="82.2"/>
	<circle class="st11" cx="331.7" cy="236.3" r="59.5"/>
	<circle class="st12" cx="331.7" cy="236.3" r="4.3"/>
	<line class="st13" x1="188.4" y1="93" x2="329.5" y2="234.2"/>
	<line class="st13" x1="129" y1="236.3" x2="328.6" y2="236.3"/>
	<line class="st13" x1="188.4" y1="379.6" x2="329.5" y2="238.5"/>
	<line class="st13" x1="331.7" y1="439" x2="331.7" y2="239.4"/>
	<path class="st14" d="M273.7,178.3l16,16c13.8-12.3,27.9-15.7,42-17.5v-22.7C313.8,157.9,297.9,155.5,273.7,178.3z"/>
	<path id="long_1_6_" class="st13" d="M894,677.6"/>
	<path id="long_2_8_" class="st13" d="M488.3,534.3"/>
	<path id="long_2_7_" class="st13" d="M953.3,534.3"/>
	<path id="long3_8_" class="st13" d="M590.2,694.8"/>
	<path id="long3_7_" class="st13" d="M894,391"/>
	<line id="long_4_4_" class="st13" x1="871.7" y1="303.7" x2="871.7" y2="707"/>
	<line id="long_1_4_" class="st13" x1="1015" y1="649.6" x2="691.1" y2="325.7"/>
	<line id="long_2_6_" class="st13" x1="1074.3" y1="506.3" x2="609.3" y2="506.3"/>
	<line id="long3_6_" class="st13" x1="1015" y1="363" x2="711.2" y2="666.8"/>
	<line id="long_4_3_" class="st13" x1="902.7" y1="-16.3" x2="902.7" y2="387"/>
	<line id="long_1_3_" class="st13" x1="1046" y1="329.6" x2="722.1" y2="5.7"/>
	<line id="long_2_5_" class="st13" x1="1105.3" y1="186.3" x2="640.3" y2="186.3"/>
	<line id="long3_5_" class="st13" x1="1046" y1="43" x2="742.2" y2="346.8"/>
</g>
<g id="_x32_" class="st0">
	<g class="st5">
		<path class="st11" d="M331.5,125.9L331.5,125.9l0-5.7c-32.1,0-61.1,13-82.2,34l4,4C273.3,138.3,301,125.9,331.5,125.9z"/>
		<path class="st11" d="M409.7,158.3l4-4c-21-21-50.1-34-82.2-34v5.7C362,125.9,389.7,138.3,409.7,158.3z"/>
		<path class="st11" d="M442.1,236.5h5.7c0-32.1-13-61.1-34-82.2l-4,4C429.7,178.3,442.1,206,442.1,236.5z"/>
		<path class="st11" d="M220.9,236.5L220.9,236.5l-5.7,0c0,32.1,13,61.1,34,82.2l4-4C233.3,294.7,220.9,267,220.9,236.5z"/>
		<path class="st11" d="M331.5,347.1v5.7c32.1,0,61.1-13,82.2-34l-4-4C389.7,334.7,362,347.1,331.5,347.1z"/>
		<path class="st11" d="M253.3,158.3l-4-4c-21,21-34,50.1-34,82.2h5.7C220.9,206,233.3,178.3,253.3,158.3z"/>
		<path class="st11" d="M442.1,236.5L442.1,236.5c0,30.5-12.4,58.2-32.4,78.2l4,4c21-21,34-50.1,34-82.2H442.1z"/>
		<path class="st11" d="M331.5,347.1c-30.5,0-58.2-12.4-78.2-32.4l-4,4c21,21,50.1,34,82.2,34L331.5,347.1L331.5,347.1z"/>
	</g>
	<g class="st5">
		<path class="st15" d="M314.6,293.6c-0.5-0.1-1-0.3-1.5-0.5C313.6,293.3,314.1,293.4,314.6,293.6z"/>
		<polygon class="st15" points="389.6,294.6 389.6,294.6 373.6,278.6 		"/>
		<path class="st15" d="M331.5,154.3c-22.7,0-43.3,9.2-58.1,24.1c-14.9,14.9-24.1,35.4-24.1,58.1H272c0,16.4,6.7,31.3,17.4,42.1
			l-16,16h0l16-16c-10.8-10.8-17.4-25.7-17.4-42.1c0-16.4,6.7-31.3,17.4-42.1c10.8-10.8,25.7-17.4,42.1-17.4
			c16.4,0,31.3,6.7,42.1,17.4c10.8,10.8,17.4,25.7,17.4,42.1h22.7c0-22.7-9.2-43.3-24.1-58.1S354.2,154.3,331.5,154.3z"/>
		<path class="st15" d="M297.5,285.4c-0.9-0.6-1.8-1.3-2.6-2C295.8,284.1,296.6,284.8,297.5,285.4z"/>
		<path class="st11" d="M331.5,232.2V177c-16.4,0-31.3,6.7-42.1,17.4l39.1,39.1C329.3,232.7,330.3,232.2,331.5,232.2z"/>
		<path class="st11" d="M334.5,233.5l39.1-39.1c-10.8-10.8-25.7-17.4-42.1-17.4v55.3C332.7,232.2,333.7,232.7,334.5,233.5z"/>
		<path class="st11" d="M334.5,233.5c0.8,0.8,1.2,1.8,1.2,3H391c0-16.4-6.7-31.3-17.4-42.1L334.5,233.5L334.5,233.5z"/>
		<path class="st11" d="M328.5,239.5c-0.8-0.8-1.2-1.8-1.2-3H272c0,16.4,6.7,31.3,17.4,42.1L328.5,239.5L328.5,239.5z"/>
		<path class="st11" d="M331.5,240.8V296c4.1,0,8.1-0.4,12-1.2c1.9-0.4,3.8-0.9,5.7-1.5c7.5-2.3,14.3-6.1,20.2-10.9
			c1.5-1.2,2.9-2.5,4.2-3.8l-39.1-39.1C333.7,240.3,332.7,240.8,331.5,240.8z"/>
		<path class="st11" d="M328.5,233.5L328.5,233.5l-39.1-39.1c-10.8,10.8-17.4,25.7-17.4,42.1h55.3
			C327.2,235.3,327.7,234.3,328.5,233.5z"/>
		<path class="st11" d="M334.5,239.5L334.5,239.5l39.1,39.1c2-2,3.9-4.2,5.6-6.5c0.6-0.8,1.1-1.5,1.7-2.3c2.1-3.2,4-6.6,5.5-10.1
			c3-7.1,4.7-15,4.7-23.2h-55.3C335.8,237.7,335.3,238.7,334.5,239.5z"/>
		<path class="st11" d="M297.5,285.4c4.7,3.3,10,5.9,15.6,7.7c0.5,0.2,1,0.3,1.5,0.5c5.4,1.6,11,2.4,16.9,2.4h0v-55.3
			c-1.2,0-2.2-0.5-3-1.2l-39.1,39.1c1.7,1.7,3.6,3.3,5.5,4.8C295.8,284.1,296.6,284.8,297.5,285.4z"/>
		<path class="st11" d="M331.5,154.3v-5.7c-24.3,0-46.2,9.8-62.1,25.7l4,4C288.2,163.5,308.8,154.3,331.5,154.3z"/>
		<path class="st11" d="M389.6,178.4l4-4c-15.9-15.9-37.9-25.7-62.1-25.7v5.7C354.2,154.3,374.8,163.5,389.6,178.4z"/>
		<path class="st11" d="M413.7,236.5h5.7c0-24.3-9.8-46.2-25.7-62.1l-4,4C404.5,193.2,413.7,213.8,413.7,236.5z"/>
		<path class="st11" d="M249.3,236.5h-5.7c0,24.3,9.8,46.2,25.7,62.1l4-4C258.5,279.8,249.3,259.2,249.3,236.5z"/>
		<path class="st11" d="M331.5,318.7v5.7c24.3,0,46.2-9.8,62.1-25.7l-4-4C374.8,309.5,354.2,318.7,331.5,318.7z"/>
		<path class="st11" d="M273.4,178.4l-4-4c-15.9,15.9-25.7,37.9-25.7,62.1h5.7C249.3,213.8,258.5,193.2,273.4,178.4z"/>
		<path class="st11" d="M413.7,236.5c0,22.7-9.2,43.3-24.1,58.1l4,4c15.9-15.9,25.7-37.9,25.7-62.1H413.7z"/>
		<path class="st11" d="M273.4,294.6l-4,4c15.9,15.9,37.9,25.7,62.1,25.7v-5.7C308.8,318.7,288.2,309.5,273.4,294.6z"/>
		<path class="st11" d="M272,236.5h-22.7c0,22.7,9.2,43.3,24.1,58.1l16-16C278.6,267.8,272,252.9,272,236.5z"/>
		<path class="st11" d="M369.4,282.4c-5.9,4.9-12.7,8.6-20.2,10.9c-1.9,0.6-3.8,1.1-5.7,1.5c-3.9,0.8-7.9,1.2-12,1.2v22.7
			c22.7,0,43.3-9.2,58.1-24.1l-16-16C372.2,279.9,370.8,281.2,369.4,282.4z"/>
		<path class="st11" d="M386.3,259.7c-1.5,3.6-3.3,6.9-5.5,10.1c-0.5,0.8-1.1,1.6-1.7,2.3c-1.7,2.3-3.6,4.5-5.6,6.5l16,16
			c14.9-14.9,24.1-35.4,24.1-58.1H391C391,244.7,389.4,252.5,386.3,259.7z"/>
		<path class="st11" d="M314.6,293.6c-0.5-0.1-1-0.3-1.5-0.5c-5.6-1.8-10.8-4.4-15.6-7.7c-0.9-0.6-1.8-1.3-2.6-2
			c-1.9-1.5-3.8-3.1-5.5-4.8l-16,16c14.9,14.9,35.4,24.1,58.1,24.1V296C325.6,296,320,295.2,314.6,293.6z"/>
	</g>
	<g class="st5">
		<path class="st11" d="M331.5,148.6L331.5,148.6l0-22.7c-30.5,0-58.2,12.4-78.2,32.4l16,16C285.3,158.5,307.2,148.6,331.5,148.6z"
			/>
		<path class="st16" d="M393.6,174.4l16-16c-20-20-47.6-32.4-78.2-32.4v22.7C355.8,148.6,377.7,158.5,393.6,174.4z"/>
		<path class="st16" d="M419.4,236.5h22.7c0-30.5-12.4-58.2-32.4-78.2l-16,16C409.5,190.3,419.4,212.2,419.4,236.5z"/>
		<path class="st11" d="M243.6,236.5L243.6,236.5l-22.7,0c0,30.5,12.4,58.2,32.4,78.2l16-16C253.5,282.7,243.6,260.8,243.6,236.5z"
			/>
		<path class="st16" d="M331.5,324.4v22.7c30.5,0,58.2-12.4,78.2-32.4l-16-16C377.7,314.5,355.8,324.4,331.5,324.4z"/>
		<path class="st11" d="M269.4,174.4l-16-16c-20,20-32.4,47.6-32.4,78.2h22.7C243.6,212.2,253.5,190.3,269.4,174.4z"/>
		<path class="st16" d="M419.4,236.5L419.4,236.5c0,24.3-9.8,46.2-25.7,62.1l16,16c20-20,32.4-47.6,32.4-78.2H419.4z"/>
		<path class="st11" d="M331.5,324.4c-24.3,0-46.2-9.8-62.1-25.7l-16,16c20,20,47.6,32.4,78.2,32.4L331.5,324.4L331.5,324.4z"/>
	</g>
</g>
<g id="detectors" class="st0">
	<path class="st17" d="M462.6,274.7h-70.7c-10.9,0-19.8-8.9-19.8-19.8v-41.3c0-10.9,8.9-19.8,19.8-19.8h70.7
		c10.9,0,19.8,8.9,19.8,19.8v41.3C482.5,265.7,473.5,274.7,462.6,274.7z"/>
	<path class="st5" d="M398.7,247.4L398.7,247.4c-5.2,0-9.5-4.3-9.5-9.5v-20c0-5.2,4.3-9.5,9.5-9.5h0c5.2,0,9.5,4.3,9.5,9.5v20
		C408.2,243.1,403.9,247.4,398.7,247.4z"/>
	<path class="st2" d="M399.2,221.9h-0.5c-1.8,0-3.2-1.5-3.2-3.2v0c0-1.8,1.5-3.2,3.2-3.2h0.5c1.8,0,3.2,1.5,3.2,3.2v0
		C402.4,220.4,400.9,221.9,399.2,221.9z"/>
	<path class="st5" d="M429,241.7L429,241.7c-5.2,0-9.5-4.3-9.5-9.5v-20c0-5.2,4.3-9.5,9.5-9.5l0,0c5.2,0,9.5,4.3,9.5,9.5v20
		C438.5,237.4,434.2,241.7,429,241.7z"/>
	<path class="st2" d="M429.5,216.5H429c-1.8,0-3.2-1.5-3.2-3.2l0,0c0-1.8,1.5-3.2,3.2-3.2h0.5c1.8,0,3.2,1.5,3.2,3.2l0,0
		C432.8,215,431.3,216.5,429.5,216.5z"/>
	<path class="st5" d="M458,241.1L458,241.1c-5.2,0-9.5-4.3-9.5-9.5v-20c0-5.2,4.3-9.5,9.5-9.5l0,0c5.2,0,9.5,4.3,9.5,9.5v20
		C467.5,236.8,463.2,241.1,458,241.1z"/>
	<path class="st2" d="M458.5,215.6H458c-1.8,0-3.2-1.5-3.2-3.2l0,0c0-1.8,1.5-3.2,3.2-3.2h0.5c1.8,0,3.2,1.5,3.2,3.2l0,0
		C461.8,214.1,460.3,215.6,458.5,215.6z"/>
</g>
<g id="_x33__bit" class="st0">
	<g class="st5">
		<path class="st18" d="M233.3,138.3c25.1-25.1,59.9-40.7,98.2-40.7v-34c-47.7,0-91,19.4-122.3,50.6L233.3,138.3L233.3,138.3z"/>
		<path class="st18" d="M429.7,138.3L429.7,138.3l24.1-24.1c-31.3-31.3-74.5-50.6-122.3-50.6v34C369.9,97.6,404.6,113.1,429.7,138.3
			z"/>
		<path class="st18" d="M470.4,236.5h34c0-47.7-19.4-91-50.6-122.3l-24.1,24.1C454.9,163.4,470.4,198.1,470.4,236.5z"/>
		<path class="st18" d="M192.6,236.5L192.6,236.5l-34,0c0,47.7,19.4,91,50.6,122.3l24.1-24.1C208.1,309.6,192.6,274.9,192.6,236.5z"
			/>
		<path class="st18" d="M331.5,375.4v34c47.7,0,91-19.4,122.3-50.6l-24.1-24.1C404.6,359.9,369.9,375.4,331.5,375.4z"/>
		<path class="st18" d="M233.3,138.3l-24.1-24.1c-31.3,31.3-50.6,74.5-50.6,122.3h34C192.6,198.1,208.1,163.4,233.3,138.3z"/>
		<path class="st18" d="M470.4,236.5L470.4,236.5c0,38.4-15.5,73.1-40.7,98.2l24.1,24.1c31.3-31.3,50.6-74.5,50.6-122.3H470.4z"/>
		<path class="st18" d="M233.3,334.7L233.3,334.7l-24.1,24.1c31.3,31.3,74.5,50.6,122.3,50.6v-34
			C293.1,375.4,258.4,359.9,233.3,334.7z"/>
		<path class="st18" d="M331.5,125.9V97.6c-38.4,0-73.1,15.5-98.2,40.7l20,20C273.3,138.3,301,125.9,331.5,125.9z"/>
		<path class="st18" d="M409.7,158.3l20-20c-25.1-25.1-59.9-40.7-98.2-40.7v28.3C362,125.9,389.7,138.3,409.7,158.3z"/>
		<path class="st18" d="M331.5,347.1v28.3c38.4,0,73.1-15.5,98.2-40.7l-20-20C389.7,334.7,362,347.1,331.5,347.1z"/>
		<path class="st18" d="M253.3,314.7l-20,20c25.1,25.1,59.9,40.7,98.2,40.7v-28.3C301,347.1,273.3,334.7,253.3,314.7z"/>
	</g>
	<g class="st5">
		<path class="st18" d="M331.5,125.9L331.5,125.9l0-5.7c-32.1,0-61.1,13-82.2,34l4,4C273.3,138.3,301,125.9,331.5,125.9z"/>
		<path class="st18" d="M409.7,158.3l4-4c-21-21-50.1-34-82.2-34v5.7C362,125.9,389.7,138.3,409.7,158.3z"/>
		<path class="st18" d="M442.1,236.5h5.7c0-32.1-13-61.1-34-82.2l-4,4C429.7,178.3,442.1,206,442.1,236.5z"/>
		<path class="st18" d="M220.9,236.5L220.9,236.5l-5.7,0c0,32.1,13,61.1,34,82.2l4-4C233.3,294.7,220.9,267,220.9,236.5z"/>
		<path class="st18" d="M331.5,347.1v5.7c32.1,0,61.1-13,82.2-34l-4-4C389.7,334.7,362,347.1,331.5,347.1z"/>
		<path class="st18" d="M253.3,158.3l-4-4c-21,21-34,50.1-34,82.2h5.7C220.9,206,233.3,178.3,253.3,158.3z"/>
		<path class="st18" d="M442.1,236.5L442.1,236.5c0,30.5-12.4,58.2-32.4,78.2l4,4c21-21,34-50.1,34-82.2H442.1z"/>
		<path class="st18" d="M331.5,347.1c-30.5,0-58.2-12.4-78.2-32.4l-4,4c21,21,50.1,34,82.2,34L331.5,347.1L331.5,347.1z"/>
	</g>
	<g class="st5">
		<path class="st18" d="M314.6,293.6c-0.5-0.1-1-0.3-1.5-0.5C313.6,293.3,314.1,293.4,314.6,293.6z"/>
		<line class="st18" x1="389.6" y1="294.6" x2="389.6" y2="294.6"/>
		<path class="st18" d="M373.6,278.6"/>
		<path class="st19" d="M331.5,154.3c-22.7,0-43.3,9.2-58.1,24.1c-14.9,14.9-24.1,35.4-24.1,58.1H272c0,16.4,6.7,31.3,17.4,42.1
			l-16,16h0l16-16c-10.8-10.8-17.4-25.7-17.4-42.1c0-16.4,6.7-31.3,17.4-42.1c10.8-10.8,25.7-17.4,42.1-17.4
			c16.4,0,31.3,6.7,42.1,17.4c10.8,10.8,17.4,25.7,17.4,42.1h22.7c0-22.7-9.2-43.3-24.1-58.1S354.2,154.3,331.5,154.3z"/>
		<path class="st18" d="M297.5,285.4c-0.9-0.6-1.8-1.3-2.6-2C295.8,284.1,296.6,284.8,297.5,285.4z"/>
		<path class="st18" d="M331.5,232.2V177c-16.4,0-31.3,6.7-42.1,17.4l39.1,39.1C329.3,232.7,330.3,232.2,331.5,232.2z"/>
		<path class="st18" d="M334.5,233.5l39.1-39.1c-10.8-10.8-25.7-17.4-42.1-17.4v55.3C332.7,232.2,333.7,232.7,334.5,233.5z"/>
		<path class="st18" d="M334.5,233.5c0.8,0.8,1.2,1.8,1.2,3H391c0-16.4-6.7-31.3-17.4-42.1L334.5,233.5L334.5,233.5z"/>
		<path class="st18" d="M328.5,239.5c-0.8-0.8-1.2-1.8-1.2-3H272c0,16.4,6.7,31.3,17.4,42.1L328.5,239.5L328.5,239.5z"/>
		<path class="st18" d="M331.5,240.8V296c4.1,0,8.1-0.4,12-1.2c1.9-0.4,3.8-0.9,5.7-1.5c7.5-2.3,14.3-6.1,20.2-10.9
			c1.5-1.2,2.9-2.5,4.2-3.8l-39.1-39.1C333.7,240.3,332.7,240.8,331.5,240.8z"/>
		<path class="st18" d="M328.5,233.5L328.5,233.5l-39.1-39.1c-10.8,10.8-17.4,25.7-17.4,42.1h55.3
			C327.2,235.3,327.7,234.3,328.5,233.5z"/>
		<path class="st18" d="M334.5,239.5L334.5,239.5l39.1,39.1c2-2,3.9-4.2,5.6-6.5c0.6-0.8,1.1-1.5,1.7-2.3c2.1-3.2,4-6.6,5.5-10.1
			c3-7.1,4.7-15,4.7-23.2h-55.3C335.8,237.7,335.3,238.7,334.5,239.5z"/>
		<path class="st18" d="M297.5,285.4c4.7,3.3,10,5.9,15.6,7.7c0.5,0.2,1,0.3,1.5,0.5c5.4,1.6,11,2.4,16.9,2.4h0v-55.3
			c-1.2,0-2.2-0.5-3-1.2l-39.1,39.1c1.7,1.7,3.6,3.3,5.5,4.8C295.8,284.1,296.6,284.8,297.5,285.4z"/>
		<path class="st18" d="M331.5,154.3v-5.7c-24.3,0-46.2,9.8-62.1,25.7l4,4C288.2,163.5,308.8,154.3,331.5,154.3z"/>
		<path class="st18" d="M389.6,178.4l4-4c-15.9-15.9-37.9-25.7-62.1-25.7v5.7C354.2,154.3,374.8,163.5,389.6,178.4z"/>
		<path class="st18" d="M413.7,236.5h5.7c0-24.3-9.8-46.2-25.7-62.1l-4,4C404.5,193.2,413.7,213.8,413.7,236.5z"/>
		<path class="st18" d="M249.3,236.5h-5.7c0,24.3,9.8,46.2,25.7,62.1l4-4C258.5,279.8,249.3,259.2,249.3,236.5z"/>
		<path class="st18" d="M331.5,318.7v5.7c24.3,0,46.2-9.8,62.1-25.7l-4-4C374.8,309.5,354.2,318.7,331.5,318.7z"/>
		<path class="st18" d="M273.4,178.4l-4-4c-15.9,15.9-25.7,37.9-25.7,62.1h5.7C249.3,213.8,258.5,193.2,273.4,178.4z"/>
		<path class="st18" d="M413.7,236.5c0,22.7-9.2,43.3-24.1,58.1l4,4c15.9-15.9,25.7-37.9,25.7-62.1H413.7z"/>
		<path class="st18" d="M273.4,294.6l-4,4c15.9,15.9,37.9,25.7,62.1,25.7v-5.7C308.8,318.7,288.2,309.5,273.4,294.6z"/>
		<path class="st18" d="M272,236.5h-22.7c0,22.7,9.2,43.3,24.1,58.1l16-16C278.6,267.8,272,252.9,272,236.5z"/>
		<path class="st18" d="M314.6,293.6c-0.5-0.1-1-0.3-1.5-0.5c-5.6-1.8-10.8-4.4-15.6-7.7c-0.9-0.6-1.8-1.3-2.6-2
			c-1.9-1.5-3.8-3.1-5.5-4.8l-16,16c14.9,14.9,35.4,24.1,58.1,24.1V296C325.6,296,320,295.2,314.6,293.6z"/>
	</g>
	<g class="st5">
		<path class="st18" d="M393.9,297.8L393.9,297.8l16.3,16c21.5-21.9,32.1-50.4,31.9-78.9l-22.8,0.2
			C419.4,257.8,411,280.4,393.9,297.8z"/>
		<path class="st19" d="M393.6,174.4l16-16c-20-20-47.6-32.4-78.2-32.4v22.7C355.8,148.6,377.7,158.5,393.6,174.4z"/>
		<path class="st19" d="M419.4,236.5h22.7c0-30.5-12.4-58.2-32.4-78.2l-16,16C409.5,190.3,419.4,212.2,419.4,236.5z"/>
		<path class="st18" d="M243.6,236.5L243.6,236.5l-22.7,0c0,30.5,12.4,58.2,32.4,78.2l16-16C253.5,282.7,243.6,260.8,243.6,236.5z"
			/>
		<path class="st19" d="M331.5,324.4v22.7c30.5,0,58.2-12.4,78.2-32.4l-16-16C377.7,314.5,355.8,324.4,331.5,324.4z"/>
		<path class="st19" d="M419.4,236.5L419.4,236.5c0,24.3-9.8,46.2-25.7,62.1l16,16c20-20,32.4-47.6,32.4-78.2H419.4z"/>
		<path class="st18" d="M331.5,324.4c-24.3,0-46.2-9.8-62.1-25.7l-16,16c20,20,47.6,32.4,78.2,32.4L331.5,324.4L331.5,324.4z"/>
	</g>
	<path class="st20" d="M293.6,190.6c5.9-4.9,12.7-8.6,20.2-10.9c1.9-0.6,3.8-1.1,5.7-1.5c3.9-0.8,7.9-1.2,12-1.2v-22.7
		c-22.7,0-43.3,9.2-58.1,24.1l16,16C290.8,193.1,292.2,191.8,293.6,190.6z"/>
	<path class="st20" d="M276.7,213.3c1.5-3.6,3.3-6.9,5.5-10.1c0.5-0.8,1.1-1.6,1.7-2.3c1.7-2.3,3.6-4.5,5.6-6.5l-16-16
		c-14.9,14.9-24.1,35.4-24.1,58.1H272C272,228.3,273.6,220.5,276.7,213.3z"/>
	<path class="st20" d="M394.1,297.8c-17.1,17.4-39.6,26.2-62.3,26.4L332,347c28.4-0.2,56.8-11.3,78.3-33.2L394.1,297.8L394.1,297.8z
		"/>
</g>
<g id="_x33__copy" class="st0">
	<g class="st5">
		<path class="st11" d="M233.3,138.3c25.1-25.1,59.9-40.7,98.2-40.7v-34c-47.7,0-91,19.4-122.3,50.6L233.3,138.3L233.3,138.3z"/>
		<path class="st11" d="M429.7,138.3L429.7,138.3l24.1-24.1c-31.3-31.3-74.5-50.6-122.3-50.6v34C369.9,97.6,404.6,113.1,429.7,138.3
			z"/>
		<path class="st11" d="M470.4,236.5h34c0-47.7-19.4-91-50.6-122.3l-24.1,24.1C454.9,163.4,470.4,198.1,470.4,236.5z"/>
		<path class="st11" d="M192.6,236.5L192.6,236.5l-34,0c0,47.7,19.4,91,50.6,122.3l24.1-24.1C208.1,309.6,192.6,274.9,192.6,236.5z"
			/>
		<path class="st11" d="M331.5,375.4v34c47.7,0,91-19.4,122.3-50.6l-24.1-24.1C404.6,359.9,369.9,375.4,331.5,375.4z"/>
		<path class="st11" d="M233.3,138.3l-24.1-24.1c-31.3,31.3-50.6,74.5-50.6,122.3h34C192.6,198.1,208.1,163.4,233.3,138.3z"/>
		<path class="st11" d="M470.4,236.5L470.4,236.5c0,38.4-15.5,73.1-40.7,98.2l24.1,24.1c31.3-31.3,50.6-74.5,50.6-122.3H470.4z"/>
		<path class="st11" d="M233.3,334.7L233.3,334.7l-24.1,24.1c31.3,31.3,74.5,50.6,122.3,50.6v-34
			C293.1,375.4,258.4,359.9,233.3,334.7z"/>
		<path class="st21" d="M331.5,125.9V97.6c-38.4,0-73.1,15.5-98.2,40.7l20,20C273.3,138.3,301,125.9,331.5,125.9z"/>
		<path class="st21" d="M409.7,158.3l20-20c-25.1-25.1-59.9-40.7-98.2-40.7v28.3C362,125.9,389.7,138.3,409.7,158.3z"/>
		<path class="st21" d="M409.7,158.3L409.7,158.3c20,20,32.4,47.6,32.4,78.2h28.3c0-38.4-15.5-73.1-40.7-98.2L409.7,158.3z"/>
		<path class="st21" d="M331.5,347.1v28.3c38.4,0,73.1-15.5,98.2-40.7l-20-20C389.7,334.7,362,347.1,331.5,347.1z"/>
		<path class="st21" d="M409.7,314.7l20,20c25.1-25.1,40.7-59.9,40.7-98.2h-28.3C442.1,267,429.7,294.7,409.7,314.7z"/>
		<path class="st21" d="M253.3,314.7l-20,20c25.1,25.1,59.9,40.7,98.2,40.7v-28.3C301,347.1,273.3,334.7,253.3,314.7z"/>
	</g>
	<g class="st5">
		<path class="st11" d="M331.5,125.9L331.5,125.9l0-5.7c-32.1,0-61.1,13-82.2,34l4,4C273.3,138.3,301,125.9,331.5,125.9z"/>
		<path class="st11" d="M409.7,158.3l4-4c-21-21-50.1-34-82.2-34v5.7C362,125.9,389.7,138.3,409.7,158.3z"/>
		<path class="st11" d="M442.1,236.5h5.7c0-32.1-13-61.1-34-82.2l-4,4C429.7,178.3,442.1,206,442.1,236.5z"/>
		<path class="st11" d="M220.9,236.5L220.9,236.5l-5.7,0c0,32.1,13,61.1,34,82.2l4-4C233.3,294.7,220.9,267,220.9,236.5z"/>
		<path class="st11" d="M331.5,347.1v5.7c32.1,0,61.1-13,82.2-34l-4-4C389.7,334.7,362,347.1,331.5,347.1z"/>
		<path class="st11" d="M253.3,158.3l-4-4c-21,21-34,50.1-34,82.2h5.7C220.9,206,233.3,178.3,253.3,158.3z"/>
		<path class="st11" d="M442.1,236.5L442.1,236.5c0,30.5-12.4,58.2-32.4,78.2l4,4c21-21,34-50.1,34-82.2H442.1z"/>
		<path class="st11" d="M331.5,347.1c-30.5,0-58.2-12.4-78.2-32.4l-4,4c21,21,50.1,34,82.2,34L331.5,347.1L331.5,347.1z"/>
	</g>
	<g class="st5">
		<path class="st15" d="M314.6,293.6c-0.5-0.1-1-0.3-1.5-0.5C313.6,293.3,314.1,293.4,314.6,293.6z"/>
		<polygon class="st15" points="389.6,294.6 389.6,294.6 373.6,278.6 		"/>
		<path class="st15" d="M331.5,154.3c-22.7,0-43.3,9.2-58.1,24.1c-14.9,14.9-24.1,35.4-24.1,58.1H272c0,16.4,6.7,31.3,17.4,42.1
			l-16,16h0l16-16c-10.8-10.8-17.4-25.7-17.4-42.1c0-16.4,6.7-31.3,17.4-42.1c10.8-10.8,25.7-17.4,42.1-17.4
			c16.4,0,31.3,6.7,42.1,17.4c10.8,10.8,17.4,25.7,17.4,42.1h22.7c0-22.7-9.2-43.3-24.1-58.1S354.2,154.3,331.5,154.3z"/>
		<path class="st15" d="M297.5,285.4c-0.9-0.6-1.8-1.3-2.6-2C295.8,284.1,296.6,284.8,297.5,285.4z"/>
		<path class="st11" d="M331.5,232.2V177c-16.4,0-31.3,6.7-42.1,17.4l39.1,39.1C329.3,232.7,330.3,232.2,331.5,232.2z"/>
		<path class="st11" d="M334.5,233.5l39.1-39.1c-10.8-10.8-25.7-17.4-42.1-17.4v55.3C332.7,232.2,333.7,232.7,334.5,233.5z"/>
		<path class="st11" d="M334.5,233.5c0.8,0.8,1.2,1.8,1.2,3H391c0-16.4-6.7-31.3-17.4-42.1L334.5,233.5L334.5,233.5z"/>
		<path class="st11" d="M328.5,239.5c-0.8-0.8-1.2-1.8-1.2-3H272c0,16.4,6.7,31.3,17.4,42.1L328.5,239.5L328.5,239.5z"/>
		<path class="st11" d="M331.5,240.8V296c4.1,0,8.1-0.4,12-1.2c1.9-0.4,3.8-0.9,5.7-1.5c7.5-2.3,14.3-6.1,20.2-10.9
			c1.5-1.2,2.9-2.5,4.2-3.8l-39.1-39.1C333.7,240.3,332.7,240.8,331.5,240.8z"/>
		<path class="st11" d="M328.5,233.5L328.5,233.5l-39.1-39.1c-10.8,10.8-17.4,25.7-17.4,42.1h55.3
			C327.2,235.3,327.7,234.3,328.5,233.5z"/>
		<path class="st11" d="M334.5,239.5L334.5,239.5l39.1,39.1c2-2,3.9-4.2,5.6-6.5c0.6-0.8,1.1-1.5,1.7-2.3c2.1-3.2,4-6.6,5.5-10.1
			c3-7.1,4.7-15,4.7-23.2h-55.3C335.8,237.7,335.3,238.7,334.5,239.5z"/>
		<path class="st11" d="M297.5,285.4c4.7,3.3,10,5.9,15.6,7.7c0.5,0.2,1,0.3,1.5,0.5c5.4,1.6,11,2.4,16.9,2.4h0v-55.3
			c-1.2,0-2.2-0.5-3-1.2l-39.1,39.1c1.7,1.7,3.6,3.3,5.5,4.8C295.8,284.1,296.6,284.8,297.5,285.4z"/>
		<path class="st11" d="M331.5,154.3v-5.7c-24.3,0-46.2,9.8-62.1,25.7l4,4C288.2,163.5,308.8,154.3,331.5,154.3z"/>
		<path class="st11" d="M389.6,178.4l4-4c-15.9-15.9-37.9-25.7-62.1-25.7v5.7C354.2,154.3,374.8,163.5,389.6,178.4z"/>
		<path class="st11" d="M413.7,236.5h5.7c0-24.3-9.8-46.2-25.7-62.1l-4,4C404.5,193.2,413.7,213.8,413.7,236.5z"/>
		<path class="st11" d="M249.3,236.5h-5.7c0,24.3,9.8,46.2,25.7,62.1l4-4C258.5,279.8,249.3,259.2,249.3,236.5z"/>
		<path class="st11" d="M331.5,318.7v5.7c24.3,0,46.2-9.8,62.1-25.7l-4-4C374.8,309.5,354.2,318.7,331.5,318.7z"/>
		<path class="st11" d="M273.4,178.4l-4-4c-15.9,15.9-25.7,37.9-25.7,62.1h5.7C249.3,213.8,258.5,193.2,273.4,178.4z"/>
		<path class="st11" d="M413.7,236.5c0,22.7-9.2,43.3-24.1,58.1l4,4c15.9-15.9,25.7-37.9,25.7-62.1H413.7z"/>
		<path class="st11" d="M273.4,294.6l-4,4c15.9,15.9,37.9,25.7,62.1,25.7v-5.7C308.8,318.7,288.2,309.5,273.4,294.6z"/>
		<path class="st22" d="M272,236.5h-22.7c0,22.7,9.2,43.3,24.1,58.1l16-16C278.6,267.8,272,252.9,272,236.5z"/>
		<path class="st22" d="M369.4,282.4c-5.9,4.9-12.7,8.6-20.2,10.9c-1.9,0.6-3.8,1.1-5.7,1.5c-3.9,0.8-7.9,1.2-12,1.2v22.7
			c22.7,0,43.3-9.2,58.1-24.1l-16-16C372.2,279.9,370.8,281.2,369.4,282.4z"/>
		<path class="st22" d="M386.3,259.7c-1.5,3.6-3.3,6.9-5.5,10.1c-0.5,0.8-1.1,1.6-1.7,2.3c-1.7,2.3-3.6,4.5-5.6,6.5l16,16
			c14.9-14.9,24.1-35.4,24.1-58.1H391C391,244.7,389.4,252.5,386.3,259.7z"/>
		<path class="st22" d="M314.6,293.6c-0.5-0.1-1-0.3-1.5-0.5c-5.6-1.8-10.8-4.4-15.6-7.7c-0.9-0.6-1.8-1.3-2.6-2
			c-1.9-1.5-3.8-3.1-5.5-4.8l-16,16c14.9,14.9,35.4,24.1,58.1,24.1V296C325.6,296,320,295.2,314.6,293.6z"/>
	</g>
	<g class="st5">
		<path class="st23" d="M268.7,174.8L268.7,174.8l-16.2-15.9c-21.4,21.8-32,50.1-31.7,78.4l22.7-0.2
			C243.3,214.6,251.7,192.1,268.7,174.8z"/>
		<path class="st16" d="M393.6,174.4l16-16c-20-20-47.6-32.4-78.2-32.4v22.7C355.8,148.6,377.7,158.5,393.6,174.4z"/>
		<path class="st16" d="M419.4,236.5h22.7c0-30.5-12.4-58.2-32.4-78.2l-16,16C409.5,190.3,419.4,212.2,419.4,236.5z"/>
		<path class="st23" d="M243.6,236.5L243.6,236.5l-22.7,0c0,30.5,12.4,58.2,32.4,78.2l16-16C253.5,282.7,243.6,260.8,243.6,236.5z"
			/>
		<path class="st16" d="M331.5,324.4v22.7c30.5,0,58.2-12.4,78.2-32.4l-16-16C377.7,314.5,355.8,324.4,331.5,324.4z"/>
		<path class="st16" d="M419.4,236.5L419.4,236.5c0,24.3-9.8,46.2-25.7,62.1l16,16c20-20,32.4-47.6,32.4-78.2H419.4z"/>
		<path class="st23" d="M331.5,324.4c-24.3,0-46.2-9.8-62.1-25.7l-16,16c20,20,47.6,32.4,78.2,32.4L331.5,324.4L331.5,324.4z"/>
	</g>
	<path class="st3" d="M606.3,162.7c-1.5,3.6-3.3,6.9-5.5,10.1"/>
	<path class="st24" d="M391,236.5h22.7c0-22.7-9.2-43.3-24.1-58.1l-16,16C384.4,205.2,391,220.1,391,236.5z"/>
	<path class="st24" d="M293.6,190.6c5.9-4.9,12.7-8.6,20.2-10.9c1.9-0.6,3.8-1.1,5.7-1.5c3.9-0.8,7.9-1.2,12-1.2v-22.7
		c-22.7,0-43.3,9.2-58.1,24.1l16,16C290.8,193.1,292.2,191.8,293.6,190.6z"/>
	<path class="st24" d="M276.7,213.3c1.5-3.6,3.3-6.9,5.5-10.1c0.5-0.8,1.1-1.6,1.7-2.3c1.7-2.3,3.6-4.5,5.6-6.5l-16-16
		c-14.9,14.9-24.1,35.4-24.1,58.1H272C272,228.3,273.6,220.5,276.7,213.3z"/>
	<path class="st24" d="M348.4,179.4c0.5,0.1,1,0.3,1.5,0.5c5.6,1.8,10.8,4.4,15.6,7.7c0.9,0.6,1.8,1.3,2.6,2
		c1.9,1.5,3.8,3.1,5.5,4.8l16-16c-14.9-14.9-35.4-24.1-58.1-24.1V177C337.4,177,343,177.8,348.4,179.4z"/>
	<path class="st25" d="M392.8,173.8L392.8,173.8l15.9-16.2c-21.8-21.4-50.1-32-78.4-31.7l0.2,22.7
		C353,148.3,375.5,156.7,392.8,173.8z"/>
	<path class="st25" d="M268.5,174.8c17-17.3,39.4-26.1,61.9-26.3l-0.2-22.7c-28.3,0.2-56.5,11.3-77.9,33L268.5,174.8L268.5,174.8z"
		/>
</g>
<g id="_x33__bit_binary">
	<path class="st26" d="M252,157.7l-20-20c-25.1,25.1-40.7,59.9-40.7,98.2h28.3C219.7,205.3,232,177.7,252,157.7z"/>
	<path class="st18" d="M392.8,173.8L392.8,173.8l15.9-16.2c-21.8-21.4-50.1-32-78.4-31.7l0.2,22.7
		C353,148.3,375.5,156.7,392.8,173.8z"/>
	<path class="st18" d="M418.7,235.1L418.7,235.1l22.8-0.3c-0.4-30.8-13.2-58.4-33.6-78.3l-16,16.4
		C408.2,188.7,418.4,210.7,418.7,235.1z"/>
	<g>
		<path class="st18" d="M233.3,138.3c25.1-25.1,59.9-40.7,98.2-40.7v-34c-47.7,0-91,19.4-122.3,50.6L233.3,138.3L233.3,138.3z"/>
		<path class="st18" d="M429.7,138.3L429.7,138.3l24.1-24.1c-31.3-31.3-74.5-50.6-122.3-50.6v34C369.9,97.6,404.6,113.1,429.7,138.3
			z"/>
		<path class="st18" d="M470.4,236.5h34c0-47.7-19.4-91-50.6-122.3l-24.1,24.1C454.9,163.4,470.4,198.1,470.4,236.5z"/>
		<path class="st18" d="M192.6,236.5L192.6,236.5l-34,0c0,47.7,19.4,91,50.6,122.3l24.1-24.1C208.1,309.6,192.6,274.9,192.6,236.5z"
			/>
		<path class="st18" d="M331.5,375.4v34c47.7,0,91-19.4,122.3-50.6l-24.1-24.1C404.6,359.9,369.9,375.4,331.5,375.4z"/>
		<path class="st18" d="M233.3,138.3l-24.1-24.1c-31.3,31.3-50.6,74.5-50.6,122.3h34C192.6,198.1,208.1,163.4,233.3,138.3z"/>
		<path class="st18" d="M470.4,236.5L470.4,236.5c0,38.4-15.5,73.1-40.7,98.2l24.1,24.1c31.3-31.3,50.6-74.5,50.6-122.3H470.4z"/>
		<path class="st18" d="M233.3,334.7L233.3,334.7l-24.1,24.1c31.3,31.3,74.5,50.6,122.3,50.6v-34
			C293.1,375.4,258.4,359.9,233.3,334.7z"/>
		<path class="st18" d="M409.7,158.3l20-20c-25.1-25.1-59.9-40.7-98.2-40.7v28.3C362,125.9,389.7,138.3,409.7,158.3z"/>
		<path class="st18" d="M409.7,314.7l20,20c25.1-25.1,40.7-59.9,40.7-98.2h-28.3C442.1,267,429.7,294.7,409.7,314.7z"/>
		<path class="st18" d="M253.3,314.7l-20,20c25.1,25.1,59.9,40.7,98.2,40.7v-28.3C301,347.1,273.3,334.7,253.3,314.7z"/>
	</g>
	<g>
		<path class="st18" d="M331.5,125.9L331.5,125.9l0-5.7c-32.1,0-61.1,13-82.2,34l4,4C273.3,138.3,301,125.9,331.5,125.9z"/>
		<path class="st18" d="M409.7,158.3l4-4c-21-21-50.1-34-82.2-34v5.7C362,125.9,389.7,138.3,409.7,158.3z"/>
		<path class="st18" d="M442.1,236.5h5.7c0-32.1-13-61.1-34-82.2l-4,4C429.7,178.3,442.1,206,442.1,236.5z"/>
		<path class="st18" d="M220.9,236.5L220.9,236.5l-5.7,0c0,32.1,13,61.1,34,82.2l4-4C233.3,294.7,220.9,267,220.9,236.5z"/>
		<path class="st18" d="M331.5,347.1v5.7c32.1,0,61.1-13,82.2-34l-4-4C389.7,334.7,362,347.1,331.5,347.1z"/>
		<path class="st18" d="M442.1,236.5L442.1,236.5c0,30.5-12.4,58.2-32.4,78.2l4,4c21-21,34-50.1,34-82.2H442.1z"/>
		<path class="st18" d="M331.5,347.1c-30.5,0-58.2-12.4-78.2-32.4l-4,4c21,21,50.1,34,82.2,34L331.5,347.1L331.5,347.1z"/>
		<path class="st18" d="M253.3,158.3l-4-4c-21,21-34,50.1-34,82.2h5.7C220.9,206,233.3,178.3,253.3,158.3z"/>
	</g>
	<g>
		<path class="st19" d="M393.6,174.4l16-16c-20-20-47.6-32.4-78.2-32.4v22.7C355.8,148.6,377.7,158.5,393.6,174.4z"/>
		<path class="st19" d="M419.4,236.5h22.7c0-30.5-12.4-58.2-32.4-78.2l-16,16C409.5,190.3,419.4,212.2,419.4,236.5z"/>
		<path class="st18" d="M243.6,236.5L243.6,236.5l-22.7,0c0,30.5,12.4,58.2,32.4,78.2l16-16C253.5,282.7,243.6,260.8,243.6,236.5z"
			/>
		<path class="st19" d="M331.5,324.4v22.7c30.5,0,58.2-12.4,78.2-32.4l-16-16C377.7,314.5,355.8,324.4,331.5,324.4z"/>
		<path class="st19" d="M419.4,236.5L419.4,236.5c0,24.3-9.8,46.2-25.7,62.1l16,16c20-20,32.4-47.6,32.4-78.2H419.4z"/>
		<path class="st18" d="M331.5,324.4c-24.3,0-46.2-9.8-62.1-25.7l-16,16c20,20,47.6,32.4,78.2,32.4L331.5,324.4L331.5,324.4z"/>
	</g>
	<path class="st18" d="M391,236.5h22.7c0-22.7-9.2-43.3-24.1-58.1l-16,16C384.4,205.2,391,220.1,391,236.5z"/>
	<path class="st18" d="M348.4,179.4c0.5,0.1,1,0.3,1.5,0.5c5.6,1.8,10.8,4.4,15.6,7.7c0.9,0.6,1.8,1.3,2.6,2
		c1.9,1.5,3.8,3.1,5.5,4.8l16-16c-14.9-14.9-35.4-24.1-58.1-24.1V177C337.4,177,343,177.8,348.4,179.4z"/>
	<g>
		<path class="st18" d="M314.6,293.6c-0.5-0.1-1-0.3-1.5-0.5C313.6,293.3,314.1,293.4,314.6,293.6z"/>
		<polygon class="st18" points="389.6,294.6 389.6,294.6 373.6,278.6 		"/>
		<path class="st18" d="M331.5,154.3c-22.7,0-43.3,9.2-58.1,24.1c-14.9,14.9-24.1,35.4-24.1,58.1H272c0,16.4,6.7,31.3,17.4,42.1h0
			c-10.8-10.8-17.4-25.7-17.4-42.1c0-16.4,6.7-31.3,17.4-42.1c10.8-10.8,25.7-17.4,42.1-17.4c16.4,0,31.3,6.7,42.1,17.4
			c10.8,10.8,17.4,25.7,17.4,42.1h22.7c0-22.7-9.2-43.3-24.1-58.1S354.2,154.3,331.5,154.3z"/>
		<path class="st18" d="M297.5,285.4c-0.9-0.6-1.8-1.3-2.6-2C295.8,284.1,296.6,284.8,297.5,285.4z"/>
		<path class="st18" d="M331.5,232.2V177c-16.4,0-31.3,6.7-42.1,17.4l39.1,39.1C329.3,232.7,330.3,232.2,331.5,232.2z"/>
		<path class="st18" d="M334.5,233.5l39.1-39.1c-10.8-10.8-25.7-17.4-42.1-17.4v55.3C332.7,232.2,333.7,232.7,334.5,233.5z"/>
		<path class="st18" d="M334.5,233.5c0.8,0.8,1.2,1.8,1.2,3H391c0-16.4-6.7-31.3-17.4-42.1L334.5,233.5L334.5,233.5z"/>
		<path class="st18" d="M328.5,239.5c-0.8-0.8-1.2-1.8-1.2-3H272c0,16.4,6.7,31.3,17.4,42.1L328.5,239.5L328.5,239.5z"/>
		<path class="st18" d="M331.5,240.8V296c4.1,0,8.1-0.4,12-1.2c1.9-0.4,3.8-0.9,5.7-1.5c7.5-2.3,14.3-6.1,20.2-10.9
			c1.5-1.2,2.9-2.5,4.2-3.8l-39.1-39.1C333.7,240.3,332.7,240.8,331.5,240.8z"/>
		<path class="st18" d="M328.5,233.5L328.5,233.5l-39.1-39.1c-10.8,10.8-17.4,25.7-17.4,42.1h55.3
			C327.2,235.3,327.7,234.3,328.5,233.5z"/>
		<path class="st18" d="M334.5,239.5L334.5,239.5l39.1,39.1c2-2,3.9-4.2,5.6-6.5c0.6-0.8,1.1-1.5,1.7-2.3c2.1-3.2,4-6.6,5.5-10.1
			c3-7.1,4.7-15,4.7-23.2h-55.3C335.8,237.7,335.3,238.7,334.5,239.5z"/>
		<path class="st18" d="M297.5,285.4c4.7,3.3,10,5.9,15.6,7.7c0.5,0.2,1,0.3,1.5,0.5c5.4,1.6,11,2.4,16.9,2.4h0v-55.3
			c-1.2,0-2.2-0.5-3-1.2l-39.1,39.1c1.7,1.7,3.6,3.3,5.5,4.8C295.8,284.1,296.6,284.8,297.5,285.4z"/>
		<path class="st18" d="M331.5,154.3v-5.7c-24.3,0-46.2,9.8-62.1,25.7l4,4C288.2,163.5,308.8,154.3,331.5,154.3z"/>
		<path class="st18" d="M389.6,178.4l4-4c-15.9-15.9-37.9-25.7-62.1-25.7v5.7C354.2,154.3,374.8,163.5,389.6,178.4z"/>
		<path class="st18" d="M413.7,236.5h5.7c0-24.3-9.8-46.2-25.7-62.1l-4,4C404.5,193.2,413.7,213.8,413.7,236.5z"/>
		<path class="st18" d="M249.3,236.5h-5.7c0,24.3,9.8,46.2,25.7,62.1l4-4C258.5,279.8,249.3,259.2,249.3,236.5z"/>
		<path class="st18" d="M331.5,318.7v5.7c24.3,0,46.2-9.8,62.1-25.7l-4-4C374.8,309.5,354.2,318.7,331.5,318.7z"/>
		<path class="st18" d="M273.4,178.4l-4-4c-15.9,15.9-25.7,37.9-25.7,62.1h5.7C249.3,213.8,258.5,193.2,273.4,178.4z"/>
		<path class="st18" d="M413.7,236.5c0,22.7-9.2,43.3-24.1,58.1l4,4c15.9-15.9,25.7-37.9,25.7-62.1H413.7z"/>
		<path class="st18" d="M273.4,294.6l-4,4c15.9,15.9,37.9,25.7,62.1,25.7v-5.7C308.8,318.7,288.2,309.5,273.4,294.6z"/>
		<path class="st18" d="M369.4,282.4c-5.9,4.9-12.7,8.6-20.2,10.9c-1.9,0.6-3.8,1.1-5.7,1.5c-3.9,0.8-7.9,1.2-12,1.2v22.7
			c22.7,0,43.3-9.2,58.1-24.1l-16-16C372.2,279.9,370.8,281.2,369.4,282.4z"/>
		<path class="st18" d="M386.3,259.7c-1.5,3.6-3.3,6.9-5.5,10.1c-0.5,0.8-1.1,1.6-1.7,2.3c-1.7,2.3-3.6,4.5-5.6,6.5l16,16
			c14.9-14.9,24.1-35.4,24.1-58.1H391C391,244.7,389.4,252.5,386.3,259.7z"/>
	</g>
</g>
</svg>
